<?xml version="1.0" encoding="UTF-8" standalone="no"?>
<svg
   xmlns:dc="http://purl.org/dc/elements/1.1/"
   xmlns:cc="http://creativecommons.org/ns#"
   xmlns:rdf="http://www.w3.org/1999/02/22-rdf-syntax-ns#"
   xmlns:svg="http://www.w3.org/2000/svg"
   xmlns="http://www.w3.org/2000/svg"
   id="svg8"
   version="1.1"
   viewBox="0 0 105.83333 79.374999"
   height="300"
   width="400">
  <defs
     id="defs2" />
  <metadata
     id="metadata5">
    <rdf:RDF>
      <cc:Work
         rdf:about="">
        <dc:format>image/svg+xml</dc:format>
        <dc:type
           rdf:resource="http://purl.org/dc/dcmitype/StillImage" />
        <dc:title />
      </cc:Work>
    </rdf:RDF>
  </metadata>
  <g
     transform="translate(0,-217.625)"
     id="layer1">
    <g
       transform="rotate(-15,27.893336,238.55445)"
       id="g1748">
      <g
         id="g1708">
        <path
           id="rect1623"
           d="M 51.729743,235.01285 V 255.258 H 31.94398 v -25.6051 h 14.425816 z"
           style="opacity:1;fill:#ffffff;fill-opacity:1;stroke:none;stroke-width:1.75779581;stroke-linecap:round;stroke-linejoin:miter;stroke-miterlimit:4;stroke-dasharray:none;stroke-dashoffset:0;stroke-opacity:1" />
        <path
           id="path1682"
           d="m 46.369796,229.6529 v 5.35995 h 5.359947 z"
           style="opacity:1;fill:#cccccc;fill-opacity:1;stroke:none;stroke-width:1.75779581;stroke-linecap:round;stroke-linejoin:miter;stroke-miterlimit:4;stroke-dasharray:none;stroke-dashoffset:0;stroke-opacity:1" />
      </g>
      <path
         id="path1727"
         style="fill:#e6e6e6;stroke:#7f7f7f;stroke-width:0.26458332;stroke-miterlimit:4;stroke-dasharray:none;stroke-opacity:1"
         d="m 45.458207,242.71649 -0.409278,0.85835 -0.0062,0.19895 0.127642,0.59583 -0.802536,0.33228 -0.330729,-0.51108 -0.145212,-0.13643 -0.896585,-0.31781 -0.306957,0.30696 0.317294,0.89659 0.136424,0.14521 0.511596,0.33073 -0.332796,0.80305 -0.595312,-0.12764 -0.198953,0.006 -0.858862,0.40927 v 0.4346 l 0.858862,0.40928 0.198953,0.006 0.595312,-0.12764 0.332796,0.80305 -0.511596,0.33073 -0.136424,0.14521 -0.317294,0.89659 0.306957,0.30695 0.896585,-0.31781 0.145212,-0.13642 0.330729,-0.51108 0.802536,0.33228 -0.127642,0.59583 0.0062,0.19895 0.409278,0.85835 h 0.434597 l 0.409279,-0.85836 0.0062,-0.19895 -0.12764,-0.59583 0.802534,-0.33228 0.331245,0.51108 0.144695,0.13643 0.896586,0.31781 0.306959,-0.30696 -0.317294,-0.89659 -0.136427,-0.14521 -0.511596,-0.33073 0.332796,-0.80305 0.595313,0.12764 0.198953,-0.006 0.858864,-0.40928 v -0.4346 l -0.858864,-0.40927 -0.198953,-0.006 -0.595313,0.12764 -0.332796,-0.80305 0.511596,-0.33073 0.136427,-0.14521 0.317294,-0.89659 -0.306959,-0.30695 -0.896586,0.31781 -0.144695,0.13642 -0.331245,0.51108 -0.802534,-0.33228 0.12764,-0.59583 -0.0062,-0.19894 -0.409279,-0.85835 z m 0.217557,3.25096 a 0.75651145,0.75651145 0 0 1 0.756544,0.75655 0.75651145,0.75651145 0 0 1 -0.756544,0.75654 0.75651145,0.75651145 0 0 1 -0.756542,-0.75654 0.75651145,0.75651145 0 0 1 0.756542,-0.75655 z m -6.470407,-10.96935 -0.272851,0.83251 0.0016,0.0739 0.09612,0.72296 -0.997871,0.26768 -0.278019,-0.67438 -0.03617,-0.0646 -0.652156,-0.58446 -0.6165,0.35605 0.179834,0.85731 0.03772,0.0631 0.445452,0.57774 -0.730705,0.7307 -0.57826,-0.44493 -0.06304,-0.0377 -0.85731,-0.18036 -0.356053,0.6165 0.584978,0.65268 0.06408,0.0357 0.674378,0.27802 -0.267168,0.99839 -0.723469,-0.0966 -0.07338,-0.001 -0.832506,0.27285 v 0.7121 l 0.832506,0.27233 0.07338,-0.001 0.723469,-0.0961 0.267168,0.99787 -0.674378,0.27802 -0.06408,0.0362 -0.584978,0.65215 0.356053,0.6165 0.85731,-0.17983 0.06304,-0.0382 0.57826,-0.44493 0.730705,0.7307 -0.445452,0.57826 -0.03772,0.063 -0.179834,0.85732 0.6165,0.35605 0.652156,-0.58498 0.03617,-0.0641 0.278019,-0.67438 0.997871,0.26717 -0.09612,0.72347 -0.0016,0.0734 0.272851,0.83251 h 0.712102 l 0.272336,-0.83251 -0.0011,-0.0734 -0.09663,-0.72347 0.998387,-0.26717 0.278021,0.67438 0.03565,0.0641 0.652675,0.58498 0.6165,-0.35605 -0.180351,-0.85732 -0.03772,-0.063 -0.444934,-0.57826 0.730705,-0.7307 0.577742,0.44493 0.06356,0.0382 0.857313,0.17983 0.35605,-0.6165 -0.584978,-0.65215 -0.06408,-0.0362 -0.674894,-0.27802 0.267682,-0.99787 0.722955,0.0961 0.0739,0.001 0.832509,-0.27233 v -0.7121 l -0.832509,-0.27285 -0.0739,0.001 -0.722955,0.0966 -0.267682,-0.99839 0.674894,-0.27802 0.06408,-0.0357 0.584978,-0.65268 -0.35605,-0.6165 -0.857313,0.18036 -0.06356,0.0377 -0.577742,0.44493 -0.730705,-0.7307 0.444934,-0.57774 0.03772,-0.0631 0.180351,-0.85731 -0.6165,-0.35605 -0.652675,0.58446 -0.03565,0.0646 -0.278021,0.67438 -0.998387,-0.26768 0.09663,-0.72296 0.0011,-0.0739 -0.272336,-0.83251 z m 0.356053,4.03179 a 1.5760657,1.5760657 0 0 1 1.576131,1.57562 1.5760657,1.5760657 0 0 1 -1.576131,1.57613 1.5760657,1.5760657 0 0 1 -1.576131,-1.57613 1.5760657,1.5760657 0 0 1 1.576131,-1.57562 z" />
    </g>
    <g
       transform="translate(-0.53453906,-1.8708867)"
       id="g1754">
      <path
         id="path624"
         style="fill:none;stroke:#7f7f7f;stroke-width:0.26458332;stroke-linecap:butt;stroke-linejoin:miter;stroke-miterlimit:4;stroke-dasharray:none;stroke-opacity:1"
         d="m 62.060001,259.68181 c 19.201672,16.36794 30.740021,5.65491 39.281859,19.71801 0.81275,1.3381 1.69223,-0.80498 1.61006,-2.47274 -0.46249,-9.38726 -4.65509,-13.66336 -13.0853,-21.33973 -7.551423,-6.87618 -7.373926,-10.08149 -16.813616,-14.8393 m -4.55823,12.86189 c 0,0 5.131077,4.6927 11.733769,8.59563 7.67526,4.53695 18.470303,6.92378 21.658527,17.61355 M 70.745673,249.78035 c 0,0 5.131077,4.6927 11.733769,8.59563 7.67526,4.53694 17.497326,8.76571 19.882288,21.06201 M 65.69052,257.34234 c 4.383359,4.81213 7.138708,5.8997 12.157271,8.28911 6.93596,3.3023 17.211425,2.96937 22.774909,12.65224 M 72.779737,245.18176 c 0,0 5.230694,3.73538 10.649409,9.16363 4.941591,4.95029 17.707124,10.59801 19.265904,24.44339 M 78.586807,244.09656 c 0.232852,7.89503 -6.083103,17.66837 -10.929265,19.77531 m 15.762872,-15.09004 c 1.936839,5.88123 -5.746054,17.8613 -9.404597,18.47079 m 14.63957,-12.79865 c 1.684604,4.28034 -4.478307,13.71004 -9.066297,14.68099 m 14.200433,-9.89685 c 1.526698,5.21139 -2.944259,11.02048 -5.941371,11.55571 m 11.155562,-5.74399 c 1.135996,3.48602 -0.878982,8.14167 -4.643006,7.66662 m 7.892082,-0.75818 c 0.22747,3.04732 -2.18204,4.34577 -4.172659,3.31305 m -32.389612,-17.92898 -3.08717,-2.83492 m 5.891424,-0.89748 -3.894569,-3.39848 m 6.145468,-0.43111 -3.756928,-3.516 m 5.790993,-1.08259 -2.941181,-2.55028 M 62.06,259.68181 c 2.387276,-2.40868 10.096132,-13.22642 10.993004,-18.93376" />
      <path
         id="path1462"
         style="fill:none;stroke:#7e554b;stroke-width:1.05833328;stroke-linecap:round;stroke-linejoin:miter;stroke-miterlimit:4;stroke-dasharray:none;stroke-opacity:1"
         d="m 45.407339,288.36345 16.652662,-28.68164 m 10.993003,-18.93376 c 1.233119,0.71595 -0.228109,5.53481 -3.263747,10.76322 -3.035634,5.22841 -6.49614,8.88649 -7.729256,8.17054 -1.233115,-0.71596 0.228116,-5.53482 3.26375,-10.76323 3.035632,-5.22841 6.496135,-8.88647 7.729253,-8.17053 z" />
    </g>
    <g
       transform="rotate(-30,10.426196,266.0953)"
       id="g1619">
      <rect
         y="264.31442"
         x="6.6054716"
         height="29.587534"
         width="22.863096"
         id="rect1553"
         style="opacity:1;fill:#a06228;fill-opacity:1;stroke:none;stroke-width:2.0311904;stroke-linecap:round;stroke-linejoin:miter;stroke-miterlimit:4;stroke-dasharray:none;stroke-dashoffset:0;stroke-opacity:1"
         rx="2"
         ry="2" />
      <rect
         style="opacity:1;fill:#ffffff;fill-opacity:1;stroke:none;stroke-width:1.79613078;stroke-linecap:round;stroke-linejoin:miter;stroke-miterlimit:4;stroke-dasharray:none;stroke-dashoffset:0;stroke-opacity:1"
         id="rect1477"
         width="20.217262"
         height="26.163515"
         x="7.9283881"
         y="266.02643" />
      <text
         xml:space="preserve"
         style="font-style:normal;font-variant:normal;font-weight:normal;font-stretch:normal;font-size:5.04362535px;line-height:1.25;font-family:'Adobe Garamond Pro';-inkscape-font-specification:'Adobe Garamond Pro';letter-spacing:0px;word-spacing:0px;fill:#000000;fill-opacity:1;stroke:none;stroke-width:0.12609063"
         x="9.3597221"
         y="271.72708"
         id="text1481"><tspan
           id="tspan1479"
           x="9.3597221"
           y="271.72708"
           style="font-style:normal;font-variant:normal;font-weight:normal;font-stretch:normal;font-family:'DejaVu Sans';-inkscape-font-specification:'DejaVu Sans';stroke-width:0.12609063">DLLs</tspan></text>
      <g
         id="g1586">
        <g
           transform="matrix(0.5803929,0,0,0.5803929,9.4728766,105.30016)"
           id="layer1-5">
          <path
             id="rect862"
             d="m 6.1841186,289.50303 -2.5249105,4.37286 -1.5869832,-1.5875 -0.9353434,0.93586 2.8060303,2.80603 3.3868733,-5.86579 z"
             style="opacity:1;fill:#000000;fill-opacity:1;stroke:none;stroke-width:0.97545648;stroke-linecap:square;stroke-linejoin:miter;stroke-miterlimit:4;stroke-dasharray:none;stroke-opacity:1" />
        </g>
        <g
           id="g1539"
           transform="matrix(0.5803929,0,0,0.5803929,9.4728766,109.26891)">
          <path
             style="opacity:1;fill:#000000;fill-opacity:1;stroke:none;stroke-width:0.97545648;stroke-linecap:square;stroke-linejoin:miter;stroke-miterlimit:4;stroke-dasharray:none;stroke-opacity:1"
             d="m 6.1841186,289.50303 -2.5249105,4.37286 -1.5869832,-1.5875 -0.9353434,0.93586 2.8060303,2.80603 3.3868733,-5.86579 z"
             id="path1537" />
        </g>
        <g
           transform="matrix(0.5803929,0,0,0.5803929,9.4728766,113.23766)"
           id="g1551">
          <path
             id="path1549"
             d="m 6.1841186,289.50303 -2.5249105,4.37286 -1.5869832,-1.5875 -0.9353434,0.93586 2.8060303,2.80603 3.3868733,-5.86579 z"
             style="opacity:1;fill:#000000;fill-opacity:1;stroke:none;stroke-width:0.97545648;stroke-linecap:square;stroke-linejoin:miter;stroke-miterlimit:4;stroke-dasharray:none;stroke-opacity:1" />
        </g>
        <path
           id="path1574"
           d="M 15.097196,287.12772 H 26.34151"
           style="fill:none;stroke:#7f7f7f;stroke-width:0.5291667;stroke-linecap:butt;stroke-linejoin:miter;stroke-miterlimit:4;stroke-dasharray:none;stroke-opacity:1" />
        <path
           id="path1572"
           d="M 15.097196,283.15897 H 26.34151"
           style="fill:none;stroke:#7f7f7f;stroke-width:0.5291667;stroke-linecap:butt;stroke-linejoin:miter;stroke-miterlimit:4;stroke-dasharray:none;stroke-opacity:1" />
        <path
           id="path1570"
           d="M 15.097196,279.19022 H 26.34151"
           style="fill:none;stroke:#7f7f7f;stroke-width:0.5291667;stroke-linecap:butt;stroke-linejoin:miter;stroke-miterlimit:4;stroke-dasharray:none;stroke-opacity:1" />
        <path
           id="path1563"
           d="M 15.097196,275.22147 H 26.34151"
           style="fill:none;stroke:#7f7f7f;stroke-width:0.5291667;stroke-linecap:butt;stroke-linejoin:miter;stroke-miterlimit:4;stroke-dasharray:none;stroke-opacity:1" />
      </g>
      <path
         style="opacity:1;fill:#b3b3b3;fill-opacity:1;stroke:none;stroke-width:3.57283187;stroke-linecap:round;stroke-linejoin:miter;stroke-miterlimit:4;stroke-dasharray:none;stroke-dashoffset:0;stroke-opacity:1"
         d="m 68.171875,168.04492 c -6.782642,0 -5.711837,7.50187 -12.101563,8.86133 -9.265307,1.97125 -10.395453,5.02032 -10.992187,8.14648 h 46.1875 c -0.596734,-3.12616 -1.728833,-6.17523 -10.994141,-8.14648 -6.389726,-1.35946 -5.316967,-8.86133 -12.099609,-8.86133 z m 0,2.39844 a 3.8596439,3.8596439 0 0 1 3.859375,3.85937 3.8596439,3.8596439 0 0 1 -3.859375,3.85938 3.8596439,3.8596439 0 0 1 -3.859375,-3.85938 3.8596439,3.8596439 0 0 1 3.859375,-3.85937 z"
         transform="matrix(0.26458333,0,0,0.26458333,0,217.625)"
         id="path1594" />
    </g>
  </g>
</svg>
