<?xml version="1.0" encoding="UTF-8" standalone="no"?>
<svg
   xmlns:dc="http://purl.org/dc/elements/1.1/"
   xmlns:cc="http://creativecommons.org/ns#"
   xmlns:rdf="http://www.w3.org/1999/02/22-rdf-syntax-ns#"
   xmlns:svg="http://www.w3.org/2000/svg"
   xmlns="http://www.w3.org/2000/svg"
   xmlns:xlink="http://www.w3.org/1999/xlink"
   id="svg61"
   version="1.1"
   viewBox="0 0 105.83334 79.374995"
   height="300"
   width="400">
  <defs
     id="defs55">
    <linearGradient
       id="linearGradient8385">
      <stop
         id="stop8387"
         style="stop-color:#000000;stop-opacity:1"
         offset="0" />
      <stop
         id="stop8389"
         style="stop-color:#ffffff;stop-opacity:1"
         offset="1" />
    </linearGradient>
    <linearGradient
       x1="-553.26971"
       y1="525.90778"
       x2="-666.11639"
       y2="413.0452"
       id="linearGradient3002"
       xlink:href="#linearGradient8385"
       gradientUnits="userSpaceOnUse"
       gradientTransform="matrix(0.99884,0,0,0.998699,689.00774,-388.84375)" />
    <linearGradient
       x1="-666.11664"
       y1="413.04492"
       x2="-553.2699"
       y2="525.90759"
       id="linearGradient3005"
       xlink:href="#linearGradient8385"
       gradientUnits="userSpaceOnUse"
       gradientTransform="matrix(0.99884,0,0,0.998699,689.00774,-388.84375)" />
    <linearGradient
       y2="525.90759"
       x2="-553.2699"
       y1="413.04492"
       x1="-666.11664"
       gradientTransform="matrix(0.99884,0,0,0.998699,689.00774,-388.84375)"
       gradientUnits="userSpaceOnUse"
       id="linearGradient22"
       xlink:href="#linearGradient8385" />
    <linearGradient
       y2="413.0452"
       x2="-666.11639"
       y1="525.90778"
       x1="-553.26971"
       gradientTransform="matrix(0.99884,0,0,0.998699,689.00774,-388.84375)"
       gradientUnits="userSpaceOnUse"
       id="linearGradient24"
       xlink:href="#linearGradient8385" />
    <linearGradient
       y2="525.90759"
       x2="-553.2699"
       y1="413.04492"
       x1="-666.11664"
       gradientTransform="matrix(0.99884,0,0,0.998699,689.00774,-388.84375)"
       gradientUnits="userSpaceOnUse"
       id="linearGradient43"
       xlink:href="#linearGradient8385" />
    <linearGradient
       y2="413.0452"
       x2="-666.11639"
       y1="525.90778"
       x1="-553.26971"
       gradientTransform="matrix(0.99884,0,0,0.998699,689.00774,-388.84375)"
       gradientUnits="userSpaceOnUse"
       id="linearGradient45"
       xlink:href="#linearGradient8385" />
  </defs>
  <metadata
     id="metadata58">
    <rdf:RDF>
      <cc:Work
         rdf:about="">
        <dc:format>image/svg+xml</dc:format>
        <dc:type
           rdf:resource="http://purl.org/dc/dcmitype/StillImage" />
        <dc:title />
      </cc:Work>
    </rdf:RDF>
  </metadata>
  <g
     transform="translate(-94.12015,-83.800861)"
     id="layer1">
    <path
       d="m 133.01731,130.35027 c -0.86434,6.75842 -4.32291,8.06839 -10.02541,8.06839 -6.78292,0 -10.12816,-6.93892 -10.12816,-14.75568 0,-4.45198 0.75932,-15.19223 10.82665,-15.19223 6.56136,0 8.85406,3.75998 9.16773,8.11999 h 16.32729 c -2.18279,-17.462347 -17.72428,-21.478685 -25.75695,-21.478685 -8.73118,0 -28.114364,5.326015 -28.114364,27.939745 0,22.61374 17.667364,28.81287 27.533594,28.81287 14.6201,0 26.36814,-8.98963 26.36814,-21.5144 z"
       style="fill:#596fc5;fill-opacity:1;stroke:none;stroke-width:0.12223639px;stroke-linecap:butt;stroke-linejoin:miter;stroke-opacity:1"
       id="path874" />
    <g
       transform="matrix(0.16465128,0,0,0.16465128,143.40559,110.20974)"
       id="g217">
      <path
         d="M 84.121094,3.7441406 C 75.283737,5.8155585 67.226807,10.547426 60.271827,16.309716 c -5.975482,4.950763 -9.275168,12.359525 -15.2146,17.360684 -2.625826,2.293898 -5.827637,3.803388 -9.118815,4.880745 -5.773969,1.832867 -11.840641,2.383351 -17.82029,3.155357 -8.8603536,1.094123 -17.84188779,2.193999 -26.2350986,5.398691 -9.2448384,3.581283 -17.4333864,10.004916 -22.8067764,18.368456 -2.313965,3.584872 -3.976595,7.643292 -4.442645,11.906401 -0.706185,5.619703 0.438039,11.431495 3.157784,16.394706 3.409048,6.548084 8.943561,11.764154 15.098809,15.726034 8.8681684,5.84777 19.2271102,9.17853 29.724133,10.4879 10.563226,1.45929 21.274016,1.92189 31.719656,4.17342 3.724556,0.82688 7.387765,2.06309 10.673962,4.02942 5.902718,3.3953 10.946244,8.02278 16.1988,12.30575 l 9.879192,8.20194 c 1.091037,-0.60254 -0.296935,-1.89519 -0.614308,-2.65545 -3.660297,-6.34081 -6.491968,-13.10772 -9.582358,-19.73312 -1.663624,-3.58274 -3.297969,-7.17979 -4.995954,-10.74614 -0.73392,-1.36168 -1.793892,-2.52719 -2.837369,-3.6609 -4.044281,-4.20054 -9.539583,-6.91067 -15.296756,-7.7482 -14.014031,-2.49748 -28.165924,-4.271616 -42.0480409,-7.471456 -4.1728613,-1.03333 -8.412697,-2.65468 -11.4326001,-5.836697 -3.0679195,-3.208366 -4.511327,-8.122802 -3.0250552,-12.391204 1.6194688,-4.909913 6.3963312,-8.504214 11.5189293,-8.93032 8.6788699,-1.04288 17.4332759,-1.163697 26.1299729,-2.008179 8.46895,-0.726403 17.049871,-1.719628 25.027945,-4.81979 8.327577,-3.197032 16.086473,-7.666118 24.311844,-11.098155 4.223702,-1.525023 9.028149,-0.584925 12.780947,1.7295 3.148403,1.941276 5.564153,4.950484 6.98867,8.347154 3.551625,7.37501 5.399535,15.740645 4.312665,23.91572 -0.64854,4.770634 -2.21447,9.489014 -4.975803,13.461412 -2.419527,3.220985 -4.921583,5.537315 -8.551344,7.198555 -1.007659,0.27 -2.80028,0.3062 -5.353288,-0.54152 -0.340181,0.70259 3.363317,2.97682 3.897762,3.57082 4.642041,7.10228 9.546627,14.04094 14.890623,20.63477 5.24566,4.81585 14.07296,4.95209 19.46289,0.29687 5.04648,-4.14165 9.17432,-9.28595 12.77584,-14.70111 6.22441,-9.59532 10.33018,-20.485193 12.52967,-31.685741 1.90884,-10.039681 2.13286,-20.515609 -0.28593,-30.489428 C 144.07508,42.512027 138.34735,32.491452 130.48439,24.610954 122.22874,16.142587 111.97854,9.5677617 100.72682,5.8755874 95.901311,4.3236053 90.722865,2.1967293 85.779297,3.3554688 Z"
         id="path7508"
         style="color:#000000;display:inline;overflow:visible;visibility:visible;fill:url(#linearGradient3005);fill-opacity:1;fill-rule:evenodd;stroke:none;stroke-width:0.5;marker:none" />
      <path
         d="m 89.429217,2.9606675 c 16.901233,3.7428389 28.043003,14.0708905 34.514553,27.9668895 3.64178,7.908857 6.10239,16.36881 7.18478,25.011773 0.98387,8.014081 0.93586,16.181382 -0.39808,24.152467 -1.50846,8.605475 -4.66419,17.146903 -10.40121,23.852113 -3.77605,4.4069 -8.78865,8.10809 -14.62039,9.08173 -4.88636,0.80877 -9.981033,-0.32914 -14.226524,-2.8274 C 84.648987,106.67443 78.300714,102.09237 70.91307,99.73668 61.322702,96.283512 51.092151,95.449652 41.089537,93.889628 28.757779,92.050591 16.396217,90.413008 4.0507999,88.6755 1.2517994,88.125314 -1.8395846,87.170782 -3.4352628,84.612081 -4.8113414,82.252502 -3.6255277,78.805826 -1.0310431,77.875022 1.7347297,76.605825 4.8572319,76.886163 7.8167909,76.706525 17.320576,76.45429 26.935519,77.220448 36.32333,75.337321 47.362747,73.458647 58.269669,69.695562 67.388164,63.06839 c 4.261398,-3.06914 8.025492,-6.751755 11.754414,-10.431671 1.073236,-1.138568 3.601996,-2.137952 3.624183,-2.122104 0,0 -3.732135,-0.205399 -6.049786,0.701826 -8.559924,4.044255 -17.211843,8.245466 -26.587454,10.01059 -8.433135,1.5005 -17.035435,1.045913 -25.55772,1.206349 -9.428231,0.107022 -18.930715,-0.269387 -28.2709057,1.274437 -4.293205,0.72335 -8.5675303,2.089321 -12.1076163,4.694815 -3.167726,2.266576 -5.976051,5.317043 -7.203045,9.075884 -1.697562,5.642586 0.08806,12.010011 4.079242,16.264216 4.70403,5.470309 11.3655878,8.809588 18.13094383,10.998008 10.29221187,3.35437 21.17535317,3.93008 31.84289717,5.27255 6.940405,0.83843 14.022641,1.62397 20.520977,4.3646 5.773754,2.73576 10.144347,7.64371 13.75355,12.79204 5.470634,7.57013 10.299094,15.74103 17.195828,22.15038 7.101359,6.03465 17.590208,7.38297 26.164098,3.92978 10.94428,-3.91107 20.79075,-10.62379 28.85807,-18.94723 C 151.95379,119.2242 160.2403,98.301583 159.49072,77.402113 158.87142,56.713076 149.64591,36.392256 134.33741,22.435196 122.50977,9.9363474 106.45458,2.7410122 89.562029,2.9469956 Z"
         id="path7510"
         style="color:#000000;display:inline;overflow:visible;visibility:visible;fill:url(#linearGradient3002);fill-opacity:1;fill-rule:evenodd;stroke:none;stroke-width:0.5;marker:none" />
    </g>
    <g
       transform="matrix(0.65211791,0,0,0.65211791,64.615941,43.61027)"
       id="g29">
      <g
         transform="matrix(0.26458333,0,0,0.26458333,163.37118,102.00654)"
         id="g20">
        <path
           d="m 79.8646,119.09957 c 35.39768,48.25534 70.03957,-13.46852 69.98868,-50.58675 C 149.79308,24.62677 105.31237,0.09913 79.8356,0.09913 38.94318,0.09913 0,33.89521 0,80.13502 c 0,51.396 44.64038,79.86497 79.8356,79.86497 -7.96447,-1.14675 -34.5062,-6.83395 -34.86292,-67.96677 -0.23987,-41.3466 13.48757,-57.86551 34.80527,-50.59905 0.47743,0.17707 23.51392,9.26451 23.51392,38.95053 0,29.55992 -23.42727,38.71487 -23.42727,38.71487 z"
           id="path16"
           style="color:#000000;display:inline;overflow:visible;visibility:visible;fill:url(#linearGradient22);fill-opacity:1;fill-rule:evenodd;stroke:none;stroke-width:0.5;marker:none" />
        <path
           d="M 79.82327,41.40081 C 56.43322,33.33893 27.78025,52.61662 27.78025,91.22962 c 0,63.04798 46.72055,68.77037 52.38416,68.77037 C 121.05683,159.99999 160,126.20391 160,79.9641 160,28.5681 115.35962,0.09913 80.16441,0.09913 c 9.74811,-1.35 52.54087,10.54991 52.54087,69.0368 0,38.14117 -31.95286,58.90496 -52.73547,50.03344 -0.47743,-0.17707 -23.51392,-9.26451 -23.51392,-38.95053 0,-29.55992 23.36738,-38.81803 23.36738,-38.81803 z"
           id="path18"
           style="color:#000000;display:inline;overflow:visible;visibility:visible;fill:url(#linearGradient24);fill-opacity:1;fill-rule:evenodd;stroke:none;stroke-width:0.5;marker:none" />
      </g>
    </g>
    <g
       id="g37"
       transform="matrix(0.65211791,0,0,0.65211791,64.615941,43.61027)">
      <g
         id="g35"
         transform="matrix(0.26458333,0,0,0.26458333,163.37118,102.00654)">
        <path
           style="color:#000000;display:inline;overflow:visible;visibility:visible;fill:url(#linearGradient43);fill-opacity:1;fill-rule:evenodd;stroke:none;stroke-width:0.5;marker:none"
           id="path31"
           d="m 79.8646,119.09957 c 35.39768,48.25534 70.03957,-13.46852 69.98868,-50.58675 C 149.79308,24.62677 105.31237,0.09913 79.8356,0.09913 38.94318,0.09913 0,33.89521 0,80.13502 c 0,51.396 44.64038,79.86497 79.8356,79.86497 -7.96447,-1.14675 -34.5062,-6.83395 -34.86292,-67.96677 -0.23987,-41.3466 13.48757,-57.86551 34.80527,-50.59905 0.47743,0.17707 23.51392,9.26451 23.51392,38.95053 0,29.55992 -23.42727,38.71487 -23.42727,38.71487 z" />
        <path
           style="color:#000000;display:inline;overflow:visible;visibility:visible;fill:url(#linearGradient45);fill-opacity:1;fill-rule:evenodd;stroke:none;stroke-width:0.5;marker:none"
           id="path33"
           d="M 79.82327,41.40081 C 56.43322,33.33893 27.78025,52.61662 27.78025,91.22962 c 0,63.04798 46.72055,68.77037 52.38416,68.77037 C 121.05683,159.99999 160,126.20391 160,79.9641 160,28.5681 115.35962,0.09913 80.16441,0.09913 c 9.74811,-1.35 52.54087,10.54991 52.54087,69.0368 0,38.14117 -31.95286,58.90496 -52.73547,50.03344 -0.47743,-0.17707 -23.51392,-9.26451 -23.51392,-38.95053 0,-29.55992 23.36738,-38.81803 23.36738,-38.81803 z" />
      </g>
    </g>
  </g>
</svg>
