<?xml version="1.0" encoding="UTF-8" standalone="no"?>
<!-- Created with Inkscape (http://www.inkscape.org/) -->

<svg
   xmlns:dc="http://purl.org/dc/elements/1.1/"
   xmlns:cc="http://creativecommons.org/ns#"
   xmlns:rdf="http://www.w3.org/1999/02/22-rdf-syntax-ns#"
   xmlns:svg="http://www.w3.org/2000/svg"
   xmlns="http://www.w3.org/2000/svg"
   xmlns:xlink="http://www.w3.org/1999/xlink"
   xmlns:sodipodi="http://sodipodi.sourceforge.net/DTD/sodipodi-0.dtd"
   xmlns:inkscape="http://www.inkscape.org/namespaces/inkscape"
   width="350"
   height="75"
   id="logo"
   version="1.1"
   inkscape:version="0.92.1 r"
   sodipodi:docname="logo.svg"
   inkscape:export-filename="/home/chase/CGPatterson/logos_and_insignia/logo.png"
   inkscape:export-xdpi="90"
   inkscape:export-ydpi="90"
   viewBox="0 0 350 75">
  <defs
     id="defs">
    <linearGradient
       inkscape:collect="always"
       id="linearGradient1">
      <stop
         style="stop-color:#00bbff;stop-opacity:0"
         offset="0"
         id="stop1" />
      <stop
         id="stop2"
         offset="0.09171336"
         style="stop-color:#00bbff;stop-opacity:0.90588235;" />
      <stop
         style="stop-color:#00bbff;stop-opacity:1"
         offset="0.82576632"
         id="stop3" />
      <stop
         style="stop-color:#00bbff;stop-opacity:0;"
         offset="1"
         id="stop4" />
    </linearGradient>
    <inkscape:perspective
       sodipodi:type="inkscape:persp3d"
       inkscape:vp_x="0 : 526.18109 : 1"
       inkscape:vp_y="0 : 1000 : 0"
       inkscape:vp_z="744.09448 : 526.18109 : 1"
       inkscape:persp3d-origin="372.04724 : 350.78739 : 1"
       id="perspective10" />
    <filter
       style="color-interpolation-filters:sRGB"
       id="filter1"
       inkscape:label="chalk"
       width="1.1"
       height="1.4"
       x="0"
       y="-0.1">
      <feTurbulence
         id="feTurbulence1"
         result="result1"
         baseFrequency="0.58767772511848337"
         scale="42.799999999999997" />
      <feMorphology
         id="feMorphology1"
         operator="dilate"
         result="result3"
         radius="1" />
      <feGaussianBlur
         stdDeviation="0.66999999999999993"
         id="feGaussianBlur1"
         result="result4" />
      <feMorphology
         id="feMorphology2"
         result="result2"
         operator="erode"
         in="SourceGraphic"
         radius="9.7156398104265413"
         scale="62.399999999999999" />
      <feDisplacementMap
         id="feDisplacementMap1"
         scale="100"
         radius="9.6999999999999993"
         result="result5"
         baseFrequency="0.78700000000000003"
         in="result2"
         in2="result4"
         xChannelSelector="A"
         yChannelSelector="A" />
      <feDisplacementMap
         in2="result1"
         id="feDisplacementMap2"
         in="result5"
         scale="9.2"
         baseFrequency="0.58799999999999997"
         xChannelSelector="A"
         yChannelSelector="A" />
      <feGaussianBlur
         stdDeviation="0.29999999999999999"
         id="feGaussianBlur2" />
    </filter>
    <linearGradient
       inkscape:collect="always"
       xlink:href="#linearGradient1"
       id="linearGradient2"
       x1="300.00323"
       y1="528.8349"
       x2="649.28894"
       y2="547.76349"
       gradientUnits="userSpaceOnUse"
       gradientTransform="translate(-6.4285714,-18.714285)" />
  </defs>
  <sodipodi:namedview
     id="base"
     pagecolor="#ffffff"
     bordercolor="#666666"
     borderopacity="1.0"
     inkscape:pageopacity="0.0"
     inkscape:pageshadow="2"
     inkscape:zoom="2.8"
     inkscape:cx="86.887307"
     inkscape:cy="104.09114"
     inkscape:document-units="px"
     inkscape:current-layer="layer1"
     showgrid="false"
     inkscape:window-width="1920"
     inkscape:window-height="1016"
     inkscape:window-x="0"
     inkscape:window-y="27"
     inkscape:window-maximized="1"
     fit-margin-top="0"
     fit-margin-left="0"
     fit-margin-right="0"
     fit-margin-bottom="0"
     inkscape:snap-global="false"
     viewbox-width="350" />
  <metadata
     id="metadata7">
    <rdf:RDF>
      <cc:Work
         rdf:about="">
        <dc:format>image/svg+xml</dc:format>
        <dc:type
           rdf:resource="http://purl.org/dc/dcmitype/StillImage" />
        <dc:title></dc:title>
      </cc:Work>
    </rdf:RDF>
  </metadata>
  <g
     inkscape:label="Layer 1"
     inkscape:groupmode="layer"
     id="layer1"
     transform="translate(-307.30892,-474.99358)">
    <path
       style="fill:url(#linearGradient2);fill-opacity:1;stroke:none;stroke-width:1px;stroke-linecap:butt;stroke-linejoin:miter;stroke-opacity:1;filter:url(#filter1)"
       d="m 310.00324,534.60906 -16.42857,-42.85715 c 96.33251,-24.52699 262.36168,-21.32247 363.92857,3.57144 l -11.42857,50 C 557.03457,518.85963 396.11356,509.34953 310.00324,534.60906 Z"
       id="path-chalk"
       inkscape:connector-curvature="0"
       sodipodi:nodetypes="ccccc" />
    <path
       inkscape:connector-curvature="0"
       d="m 608.51632,518.67707 c 0,5.2984 -0.0736,6.03428 -2.79638,6.40223 l -1.54536,0.22077 c -0.51513,0.36794 -0.36795,1.61895 0.14717,1.83972 2.06049,-0.14718 4.26816,-0.22077 6.91735,-0.22077 2.5756,0 4.70969,0.0736 6.69659,0.22077 0.51512,-0.22077 0.6623,-1.47178 0.14718,-1.83972 l -1.3246,-0.22077 c -2.6492,-0.44153 -2.79638,-1.10383 -2.79638,-6.40223 v -11.2591 c 0,-2.13407 0.14718,-3.16432 1.10384,-4.41533 1.03024,-1.39819 3.45867,-2.57561 6.25505,-2.57561 5.00403,0 6.91735,3.09074 6.91735,7.2853 v 10.96474 c 0,5.2984 -0.0736,5.9607 -2.79638,6.40223 l -1.39818,0.22077 c -0.51513,0.36794 -0.36795,1.61895 0.14717,1.83972 1.9869,-0.14718 4.19457,-0.22077 6.84377,-0.22077 2.5756,0 4.70968,0.0736 6.91735,0.22077 0.51512,-0.22077 0.6623,-1.47178 0.14718,-1.83972 l -1.61896,-0.22077 c -2.6492,-0.36795 -2.79638,-1.10383 -2.79638,-6.40223 v -12.65728 c 0,-4.93045 -2.50203,-9.12502 -8.60989,-9.12502 -3.75303,0 -7.21172,1.83972 -10.30244,3.75303 -0.51512,0 -0.80948,-0.36794 -0.80948,-0.80948 0,-0.6623 0,-1.76613 0.14718,-3.45867 -0.14718,-0.36795 -0.51512,-0.51513 -0.80948,-0.51513 -1.47177,1.10384 -5.66634,3.01715 -7.35888,3.60586 -0.36795,0.22076 -0.36795,1.03024 -0.0736,1.3246 l 0.6623,0.44153 c 1.9869,1.3246 1.9869,1.69255 1.9869,4.56251 v 12.87805 m -17.0845,-21.7823 c -8.68348,0 -15.67443,6.623 -15.67443,15.89519 0,9.1986 6.62301,15.1593 15.08572,15.1593 9.19859,0 15.52724,-6.623 15.52724,-15.8216 0,-9.05142 -6.69659,-15.23289 -14.93853,-15.23289 m 8.60989,16.41031 c 0,5.66634 -1.9869,12.43652 -8.46272,12.43652 -6.4758,0 -9.49296,-7.21171 -9.49296,-13.90829 0,-8.09477 3.60587,-12.73088 8.46272,-12.73088 6.99094,0 9.49296,7.94761 9.49296,14.20265 m -33.23732,-16.41031 c -5.59275,0 -10.00809,3.01715 -10.00809,8.38913 0,4.04738 3.01716,6.62299 7.2853,9.05143 2.72279,1.54536 5.66634,3.38509 5.66634,6.77017 0,3.16432 -2.28125,4.70969 -4.93045,4.70969 -4.19456,0 -6.54941,-3.53227 -7.80042,-7.57965 -0.36794,-0.44154 -1.3246,-0.36795 -1.69254,0.0736 -0.14718,2.42844 0.29435,6.03429 0.88306,7.43248 1.83972,1.47178 4.41534,2.20766 7.87401,2.20766 5.44557,0 10.59679,-2.79637 10.59679,-8.38913 0,-5.22479 -3.60585,-7.72682 -7.50606,-9.93449 -2.5756,-1.47178 -5.66634,-3.09073 -5.66634,-6.10788 0,-2.64918 1.83973,-4.48892 4.70969,-4.48892 3.01714,0 5.22481,2.13409 6.47582,5.37199 0.36794,0.44153 1.47177,0.29436 1.76613,-0.22077 0,-1.98689 -0.51512,-4.34174 -1.17742,-5.96069 -0.6623,-0.58871 -3.38509,-1.3246 -6.47582,-1.3246 m -27.98942,21.7823 c 0,5.2984 -0.0736,5.9607 -2.79638,6.40223 l -1.39819,0.22077 c -0.51512,0.36794 -0.36794,1.61895 0.14718,1.83972 1.91331,-0.14718 4.12098,-0.22077 6.77018,-0.22077 2.57561,0 4.70968,0.0736 8.16836,0.22077 0.51512,-0.22077 0.6623,-1.47178 0.14718,-1.83972 l -2.6492,-0.22077 c -2.79638,-0.22077 -2.94356,-1.10383 -2.94356,-6.40223 V 508.669 c 0,-2.50201 0.22077,-4.63609 0.95666,-5.66634 0.58871,-0.80947 1.47178,-1.47177 2.6492,-1.47177 1.03024,0 2.13408,0.44153 3.23791,1.17742 0.51512,0.29435 0.88306,0.51512 1.61895,0.51512 1.17742,0 3.16432,-0.95666 3.16432,-3.38509 0,-1.76613 -1.47177,-2.94355 -3.3115,-2.94355 -2.72278,0 -5.51916,2.28125 -8.09477,4.41533 -0.14718,-0.0736 -0.22077,-0.29436 -0.22077,-0.6623 v -4.26815 c 0,-0.29436 -0.22076,-0.44154 -0.58871,-0.51513 -1.83972,1.10384 -5.73993,3.01715 -7.43247,3.60586 -0.36794,0.22076 -0.36794,1.03024 -0.0736,1.3246 l 0.6623,0.44153 c 1.9869,1.3246 1.9869,1.69255 1.9869,4.56251 v 12.87805 m -7.73269,-10.5968 c 3.09074,0 4.12098,-0.0736 4.34175,-0.51512 0.14717,-0.29435 0.29435,-0.88306 0.29435,-1.91331 0,-4.41532 -4.12098,-8.75707 -10.44962,-8.75707 -8.83065,0 -14.79136,7.57966 -14.79136,16.63108 0,3.23791 0.88307,6.69659 3.09074,9.56655 2.13407,2.79638 5.8871,4.85686 10.67038,4.85686 3.82662,0 9.12502,-1.83972 11.55345,-6.84376 -0.0736,-0.6623 -0.58871,-1.10383 -1.3246,-0.88307 -2.28125,2.86997 -4.34174,3.60586 -6.77017,3.60586 -7.874,0 -12.21575,-6.32864 -12.21575,-13.76112 0,-1.83972 0.0736,-1.9869 1.9869,-1.9869 h 13.61393 m -14.27623,-2.20766 c -0.51513,0 -0.51513,-0.22077 -0.51513,-0.36795 0.0736,-2.42843 3.82662,-6.40223 8.16837,-6.40223 4.26814,0 5.66634,2.57561 5.66634,4.6361 0,0.95666 -0.22077,1.25101 -0.44153,1.39819 -0.58872,0.44153 -2.20768,0.73589 -7.65325,0.73589 h -5.2248 m -5.16274,-4.85687 c 0.6623,-0.44153 0.80947,-2.42843 -0.0736,-3.09073 h -8.16836 c -1.25101,0 -1.3246,-0.0736 -1.3246,-1.39819 v -3.31149 c -0.29436,-0.51513 -1.17742,-0.51513 -1.54537,-0.36795 -0.73589,1.47178 -2.13408,3.45868 -3.09073,4.34174 -0.73589,0.6623 -2.57561,1.61896 -4.70969,2.28126 -0.29435,0.44153 -0.22076,1.25101 0.22077,1.54536 h 2.06049 c 1.47177,0 1.54536,0.14718 1.54536,2.13408 v 16.85185 c 0,4.41533 1.32461,7.94759 7.65324,7.94759 3.75303,0 6.40223,-1.83972 7.72683,-3.38508 0.14718,-0.44154 -0.14717,-1.25101 -0.73589,-1.25101 -0.22076,0 -1.17742,0.80947 -1.83972,1.03024 -0.58871,0.22077 -1.25101,0.36794 -1.9869,0.36794 -4.85685,0 -5.37198,-3.9002 -5.37198,-8.16836 V 502.7819 c 0,-1.54537 0.0736,-1.76614 1.3246,-1.76614 h 8.31554 m -21.83529,0 c 0.6623,-0.44153 0.80948,-2.42843 -0.0736,-3.09073 h -8.16836 c -1.25101,0 -1.3246,-0.0736 -1.3246,-1.39819 v -3.31149 c -0.29435,-0.51513 -1.17742,-0.51513 -1.54536,-0.36795 -0.73589,1.47178 -2.13408,3.45868 -3.09074,4.34174 -0.73588,0.6623 -2.57561,1.61896 -4.70968,2.28126 -0.29436,0.44153 -0.22077,1.25101 0.22076,1.54536 h 2.06049 c 1.47178,0 1.54537,0.14718 1.54537,2.13408 v 16.85185 c 0,4.41533 1.32461,7.94759 7.65324,7.94759 3.75303,0 6.40223,-1.83972 7.72683,-3.38508 0.14718,-0.44154 -0.14718,-1.25101 -0.73589,-1.25101 -0.22077,0 -1.17742,0.80947 -1.83972,1.03024 -0.58871,0.22077 -1.25101,0.36794 -1.9869,0.36794 -4.85685,0 -5.37199,-3.9002 -5.37199,-8.16836 V 502.7819 c 0,-1.54537 0.0736,-1.76614 1.3246,-1.76614 h 8.31554 m -38.2495,13.83471 c -4.70968,1.69254 -6.10787,3.3851 -6.10787,6.25505 0,2.06049 0.88306,3.90021 2.28125,5.15122 1.25101,1.10383 3.01714,1.69254 5.15122,1.69254 2.06049,0 3.67944,-0.95665 5.2984,-1.83972 1.47177,-0.80947 2.35484,-1.47177 2.86996,-1.47177 0.44154,0 0.88307,0.58871 1.17742,1.03024 1.25101,1.61895 3.01715,2.28125 4.78328,2.28125 3.60585,0 6.18146,-2.86996 6.18146,-3.23791 0,-0.51512 -0.22076,-0.95665 -0.51512,-0.95665 -0.22077,0 -0.58871,0.29435 -0.95665,0.51512 -0.44154,0.22077 -1.10384,0.44153 -1.83973,0.44153 -2.86996,0 -3.53226,-3.01714 -3.38508,-6.40223 l 0.44153,-12.80446 c 0.22077,-5.51915 -2.35484,-8.60989 -7.65324,-8.60989 -5.37198,0 -13.68753,5.22482 -13.68753,9.05143 0,0.6623 0.36795,1.03024 1.03025,1.03024 1.10383,0 3.09073,-0.51512 4.19456,-1.39819 0.58871,-0.44153 0.6623,-1.3246 0.73589,-2.50202 0.14718,-2.28125 2.6492,-3.3115 4.70969,-3.3115 4.56251,0 5.44557,3.67946 5.37198,6.40223 l -0.0736,3.38509 c 0,1.10383 -0.14717,1.76613 -1.25101,2.13408 l -8.75707,3.16432 m -0.44153,5.37198 c 0,-2.86995 2.13407,-3.97379 6.47582,-5.44557 1.3246,-0.44153 2.57561,-0.73589 3.01714,-0.73589 0.44153,0 0.73589,0.14718 0.73589,0.95666 l -0.14718,4.34174 c -0.0736,1.54536 -0.0736,2.57561 -0.95666,3.45867 -0.73588,0.73589 -3.01714,1.83973 -4.48892,1.83973 -3.75303,0 -4.63609,-3.16433 -4.63609,-4.41534 M 309.8002,474.99358 c -1.39024,0 -2.49128,1.10104 -2.49128,2.49129 v 49.98548 c 0,1.39025 1.10104,2.52323 2.49128,2.52323 h 129.64287 c 1.39024,0 2.49129,-1.13298 2.49129,-2.52323 v -49.98548 c 0,-1.39025 -1.10105,-2.49129 -2.49129,-2.49129 z m 28.68177,2.04414 c 3.9738,0 9.57268,0.80002 13.03136,1.75667 0.88307,0.22077 1.38184,0.36105 2.04414,0.28746 0.0736,1.69254 0.46529,6.33861 1.054,10.82753 -0.36794,0.51512 -1.49707,0.56929 -2.01219,0.12776 -1.10384,-5.00405 -4.40512,-10.73171 -15.0755,-10.73171 -11.25908,0 -20.82462,7.12484 -20.82462,22.35772 0,15.45364 9.77813,24.01859 21.84669,24.01859 9.49295,0 13.70235,-6.19833 15.39489,-10.54007 0.51512,-0.36795 1.62202,-0.22767 1.91638,0.28745 -0.51513,3.82662 -2.44147,8.69473 -3.5453,10.09292 -0.88307,0.14718 -1.74569,0.44025 -2.55517,0.73461 -1.61895,0.58871 -6.91633,1.6928 -11.62601,1.6928 -6.62299,0 -12.96136,-1.31285 -18.33334,-4.9187 -5.8871,-4.04739 -10.44425,-10.75676 -10.44425,-20.24971 0,-8.16835 3.66974,-15.17336 9.26249,-19.5151 5.37197,-4.19457 12.2132,-6.22822 19.86643,-6.22822 z m 45.92915,0 c 4.19457,0 8.1073,0.79159 9.35831,1.08594 1.39819,0.29436 3.6843,0.81791 4.56736,0.67073 0,2.42844 0.42365,6.2525 1.08595,10.66783 -0.22077,0.58871 -1.53872,0.66511 -1.98026,0.22358 -2.06048,-7.94759 -7.56944,-10.44425 -15.07549,-10.44425 -14.27623,0 -20.53717,10.13764 -20.53717,21.17596 0,14.12905 7.27892,25.26423 22.07027,25.26423 4.56251,0 7.27124,-0.98477 8.08072,-2.23578 0.36795,-0.51512 0.73461,-1.82924 0.73461,-4.18409 v -2.93844 c 0,-6.18145 -0.19649,-6.63935 -4.759,-7.15447 l -3.25784,-0.35134 c -0.58871,-0.29435 -0.51512,-1.63173 0,-1.85249 2.13408,0.14717 6.19833,0.22357 10.54007,0.22357 2.86997,0 5.36483,-0.0763 7.79327,-0.22357 0.51512,0.29435 0.579,1.41096 0.0639,1.85249 l -1.18176,0.1597 c -3.09073,0.36795 -3.16202,2.41131 -3.16202,6.16435 v 4.1202 c 0,2.94356 0.46402,4.72298 1.78862,5.2381 0.22076,0.22077 0.19853,0.6416 -0.0958,0.86237 -0.88307,0 -2.17905,0.30279 -3.57724,0.67073 -3.90021,1.03025 -9.21726,1.91638 -13.19106,1.91638 -8.75706,0 -16.78721,-2.43662 -22.45354,-8.17654 -4.41533,-4.41533 -6.77119,-10.22861 -6.77119,-16.70442 0,-6.25504 2.08092,-12.58216 6.64343,-17.43902 4.93046,-5.15121 12.20401,-8.59175 23.31592,-8.59175 z m 31.17306,0.95818 c 1.3476,-0.0149 2.78488,0 4.31185,0 6.10786,0 10.65863,0.80437 14.1173,2.93845 3.38509,2.13407 5.87689,5.94153 5.87689,11.01916 0,6.77017 -4.18179,10.17647 -7.34611,11.72184 -3.23791,1.54536 -7.13965,2.20383 -10.15679,2.20383 -0.51513,-0.22077 -0.50542,-1.32204 -0.0639,-1.46922 7.94758,-1.47178 10.79558,-5.95841 10.79558,-12.36063 0,-7.13811 -4.19636,-11.78571 -11.84959,-11.78571 -3.90021,0 -3.96051,0.29614 -3.96051,2.65098 v 32.83392 c 0,7.72682 0.14513,8.68348 4.85482,9.1986 l 1.98025,0.19164 c 0.44154,0.36795 0.31378,1.63173 -0.12775,1.8525 -4.19457,-0.14718 -6.63833,-0.22358 -9.58189,-0.22358 -3.09073,0 -5.73712,0.0763 -8.97502,0.22358 -0.44154,-0.22077 -0.60124,-1.41096 -0.1597,-1.8525 l 1.56504,-0.19164 c 4.26815,-0.58871 4.40766,-1.47178 4.40766,-9.1986 v -27.18061 c 0,-6.25504 -0.13798,-7.4892 -3.44947,-7.85714 l -2.65099,-0.28746 c -0.51512,-0.44153 -0.46095,-1.55814 0.12776,-1.85249 2.92515,-0.38634 6.24176,-0.53007 10.28455,-0.57492 z"
       style="font-style:normal;font-variant:normal;font-weight:normal;font-stretch:normal;font-size:72px;font-family:'Adobe Garamond Pro';-inkscape-font-specification:'Adobe Garamond Pro';fill:#222222;fill-opacity:1;stroke:none"
       id="path-text" />
  </g>
</svg>
